<svg xmlns="http://www.w3.org/2000/svg" viewBox="0 0 30 30">
    <path d="M24 4c-.251-.867-1.041-3.723-1.813-4-1.375 0-2.615-.011-4 0-.49.003-2.011 2.581-2.187 3-.965 2.314-1.313 3.596-2 6a121.21 121.21 0 0 0-2 8c-.265-.444-.821-1.663-1-2-1.31-2.508-1.688-4.497-3-7-1.321-2.519-1.162-3.468-4-3-.706.114-2.351.708-3 1-.323.146-1 .75-1 2 0 5.875 0 11.375 1 17 .612 4.011.167 4.469 4 3 .191-.074-.191.08 0 0 2-1 3.156-1.01 3-2-.275-1.713-.778-4.279-1-6 .079-.006-.081.006 0 0 1 0 2.891 3.095 4 5 .91 1.551 2 2 3 2 4 0 5-1 5-2s-.044-3.236 0-4c0-2-.094-7.285 0-8 1.735 5.547 3.387 10.657 5 16 .28.933 1.944 1.293 2.938 1 1.813 0 3.29-.655 3.063-1.438C28 21.674 27.234 17.344 26 12c-.703-3.052-1-4-2-8z"/>
</svg>